# xmcd
#
# Track frame offsets: 
#        150
#        24563
#        39278
#        55899
#        83483
#        109639
#        132421
#        148231
#        185566
#        214491
#        235517
#
# Disc length: 3579 seconds
#
# Revision: 0
# Processed by: cddbd v1.5.2PL0 Copyright (c) Steve Scherf et al.
# Submitted via: ExactAudioCopyFreeDBPlugin 1.0
#
DISCID=950df90b
DTITLE=Various Artist - Naim Sampler 8
DYEAR=2011
DGENRE=Rock
TTITLE0=Stuart McCallum - dR Doctor
TTITLE1=Phantom Limb - Draw The Line
TTITLE2=Gwyneth Herbert - My Narrow Man
TTITLE3=Neil Cowley Trio - Radio Silence
TTITLE4=Barb Jungr - I'm A Believer
TTITLE5=Trichotomy - Chase
TTITLE6=Tellison - Know Thy Foe
TTITLE7=Empirical - Hat and Beard
TTITLE8=Trichotomy - Island Of The Sun
TTITLE9=Gwyneth Herbert - My Mini and Me (Polar Bear Remix)
TTITLE10=Jon Thorne and Danny Thompson - Watching The Well
EXTD=
EXTT0=
EXTT1=
EXTT2=
EXTT3=
EXTT4=
EXTT5=
EXTT6=
EXTT7=
EXTT8=
EXTT9=
EXTT10=
PLAYORDER=
